<svg xmlns="http://www.w3.org/2000/svg" xmlns:xlink="http://www.w3.org/1999/xlink" width="500" zoomAndPan="magnify" viewBox="0 0 375 374.999991" height="500" preserveAspectRatio="xMidYMid meet" version="1.0"><defs><g/><clipPath id="42d2a69892"><path d="M 17 18 L 349 18 L 349 350 L 17 350 Z M 17 18 " clip-rule="nonzero"/></clipPath><clipPath id="183524fb3e"><path d="M 99.648438 -34.890625 L 401.421875 100.773438 L 265.761719 402.546875 L -36.015625 266.886719 Z M 99.648438 -34.890625 " clip-rule="nonzero"/></clipPath><clipPath id="941fc9b4f3"><path d="M 250.535156 32.941406 C 167.203125 -4.519531 69.277344 32.664062 31.816406 115.996094 C -5.644531 199.332031 31.539062 297.253906 114.871094 334.714844 C 198.207031 372.179688 296.128906 334.992188 333.589844 251.660156 C 371.054688 168.328125 333.867188 70.402344 250.535156 32.941406 Z M 250.535156 32.941406 " clip-rule="nonzero"/></clipPath></defs><g clip-path="url(#42d2a69892)"><g clip-path="url(#183524fb3e)"><g clip-path="url(#941fc9b4f3)"><path fill="#000000" d="M 99.648438 -34.890625 L 401.421875 100.773438 L 265.761719 402.546875 L -36.015625 266.886719 Z M 99.648438 -34.890625 " fill-opacity="1" fill-rule="nonzero"/></g></g></g><g fill="#ffffff" fill-opacity="1"><g transform="translate(117.120428, 276.452992)"><g><path d="M 81.0625 11.328125 C 81.71875 11.398438 82.28125 11.316406 82.75 11.078125 L 83.3125 10.6875 L 83.703125 10.34375 C 88.015625 7.238281 93.28125 2.707031 99.5 -3.25 C 103.644531 -7.289062 108.707031 -11.40625 114.6875 -15.59375 C 120.738281 -20 125.742188 -23.757812 129.703125 -26.875 C 131.515625 -28.382812 134.4375 -29.15625 138.46875 -29.1875 C 139.5625 -29.226562 140.25 -28.640625 140.53125 -27.421875 C 140.71875 -26.398438 141.296875 -25.722656 142.265625 -25.390625 C 143.722656 -24.867188 144.925781 -23.789062 145.875 -22.15625 L 146.4375 -21.3125 L 147.1875 -20.59375 L 151.625 -15.359375 C 156.476562 -9.304688 157.503906 -2.359375 154.703125 5.484375 C 150.585938 17.367188 146.019531 27.972656 141 37.296875 C 138.882812 41.234375 137.445312 45.039062 136.6875 48.71875 L 135.71875 52.5 L 134.75 56.265625 L 134.78125 56.5625 L 134.984375 56.984375 C 135.273438 57.296875 135.648438 57.273438 136.109375 56.921875 L 142.53125 51.3125 C 145.007812 49.164062 147.0625 47.175781 148.6875 45.34375 L 153.125 40.5625 L 157.640625 35.84375 L 163.171875 30.171875 L 168.78125 24.59375 L 174.890625 18.828125 L 180.828125 12.984375 L 182.296875 11.46875 L 183.609375 9.953125 C 184.398438 8.617188 185.5625 7.085938 187.09375 5.359375 L 190.78125 1.03125 C 194.082031 -3.039062 198.664062 -6.820312 204.53125 -10.3125 C 206.519531 -11.5 208.867188 -11.601562 211.578125 -10.625 C 213.492188 -9.90625 213.835938 -8.648438 212.609375 -6.859375 L 207.609375 0.015625 C 204.796875 3.578125 202.488281 6.78125 200.6875 9.625 C 198.007812 13.945312 194.984375 17.625 191.609375 20.65625 C 189.984375 22.039062 187.953125 24.222656 185.515625 27.203125 C 182.023438 31.316406 177.5625 35.863281 172.125 40.84375 L 166.9375 45.5625 L 161.984375 50.328125 C 154.046875 58.148438 144.125 66.632812 132.21875 75.78125 C 129.988281 77.570312 128.671875 79.242188 128.265625 80.796875 C 127.960938 82.078125 127.078125 82.804688 125.609375 82.984375 C 123.972656 83.117188 122.5625 84.0625 121.375 85.8125 L 120.171875 87.515625 C 118.972656 88.796875 117.625 89.207031 116.125 88.75 L 115.359375 88.53125 L 114.578125 88.328125 C 110.691406 88.285156 107.410156 86.410156 104.734375 82.703125 L 103.1875 81.09375 L 101.53125 79.65625 C 99.695312 78.125 97.921875 75.742188 96.203125 72.515625 C 95.765625 71.722656 95.53125 70.65625 95.5 69.3125 C 95.507812 62.632812 96.472656 56.492188 98.390625 50.890625 L 101.703125 40.40625 L 104.921875 29.859375 C 106.273438 25.316406 108.289062 19.820312 110.96875 13.375 C 112.101562 10.800781 112.863281 8.195312 113.25 5.5625 L 113.703125 3.78125 L 114.09375 1.96875 L 114.359375 1.09375 L 114.625 0.234375 C 114.800781 -0.421875 114.828125 -1.015625 114.703125 -1.546875 C 114.148438 -1.640625 113.695312 -1.519531 113.34375 -1.1875 L 112.8125 -0.65625 L 112.40625 -0.15625 C 107.613281 4.695312 101.597656 10.015625 94.359375 15.796875 C 92.367188 17.429688 89.984375 19.5625 87.203125 22.1875 L 80.125 28.625 L 75.15625 33.25 L 70.15625 37.734375 C 68.03125 39.523438 65.742188 41.640625 63.296875 44.078125 C 61.117188 46.296875 58.722656 48.503906 56.109375 50.703125 C 53.242188 53.078125 50.53125 52.894531 47.96875 50.15625 L 47.09375 49.21875 L 46.3125 48.34375 C 44.988281 47.3125 44.222656 46.085938 44.015625 44.671875 C 43.816406 43.347656 43.023438 41.921875 41.640625 40.390625 C 39.679688 38.140625 38.503906 36.1875 38.109375 34.53125 C 38.046875 34.039062 37.835938 33.566406 37.484375 33.109375 L 36.359375 31.84375 C 34.773438 30.226562 34.3125 28.210938 34.96875 25.796875 C 37.863281 14.535156 40.898438 5.535156 44.078125 -1.203125 C 46.734375 -6.859375 48.816406 -11.769531 50.328125 -15.9375 C 51.285156 -18.738281 52.601562 -22.101562 54.28125 -26.03125 L 58.546875 -35.890625 C 61.171875 -41.929688 63.082031 -46.613281 64.28125 -49.9375 C 65.851562 -54.300781 68.070312 -59.09375 70.9375 -64.3125 C 73.15625 -68.175781 75.476562 -72.664062 77.90625 -77.78125 L 84.296875 -91.46875 L 87.5625 -98.5 L 91.078125 -105.34375 L 93.234375 -109.78125 L 95.171875 -114.28125 L 95.703125 -115.984375 L 96.09375 -117.828125 L 96.421875 -119.421875 L 96.84375 -120.96875 C 97.988281 -123.800781 99.972656 -125.085938 102.796875 -124.828125 C 104.804688 -124.660156 107.28125 -124.582031 110.21875 -124.59375 C 113.164062 -124.582031 116.707031 -123.707031 120.84375 -121.96875 C 124.414062 -120.414062 127.003906 -117.707031 128.609375 -113.84375 C 130.160156 -110.050781 130.207031 -106.5 128.75 -103.1875 C 127.195312 -99.507812 126.476562 -95.539062 126.59375 -91.28125 C 126.632812 -88.40625 125.972656 -85.359375 124.609375 -82.140625 L 121.40625 -74 L 118.1875 -65.84375 L 116.984375 -62.796875 L 110.90625 -49.15625 L 104.671875 -35.609375 L 97.84375 -21.5 L 90.859375 -7.390625 L 86.21875 1.90625 C 84.394531 5.457031 82.675781 8.597656 81.0625 11.328125 Z M 81.0625 11.328125 "/></g></g></g></svg>